<?xml version="1.0" encoding="UTF-8" standalone="no"?>
<!-- Created with Inkscape (http://www.inkscape.org/) -->
<svg
   xmlns:svg="http://www.w3.org/2000/svg"
   xmlns="http://www.w3.org/2000/svg"
   version="1.0"
   width="300"
   height="300"
   id="svg2">
  <defs
     id="defs4" />
  <g
     transform="translate(-177.7515,-290.02076)"
     id="layer1">
    <path
       d="M 276.08112,311.21906 C 248.55541,315.7572 191.05613,369.85008 192.58112,411.87531 C 216.32781,375.69707 255.58551,402.02133 255.36025,441.32181 C 255.13684,480.29918 216.9183,503.08668 192.92487,469.78156 C 193.98888,511.15955 249.22278,565.57604 276.74849,570.11419 C 253.98863,512.86662 264.8641,510.85171 290.02763,496.96694 C 283.42696,466.33871 284.07522,417.31413 290.33112,383.71906 C 263.71875,368.63351 252.99763,362.31776 276.08112,311.21906 z"
       id="path2404"
       style="fill:#375ea3;fill-opacity:1;fill-rule:evenodd;stroke:#000000;stroke-width:3;stroke-linecap:butt;stroke-linejoin:miter;stroke-miterlimit:4;stroke-dasharray:none;stroke-opacity:1" />
    <path
       d="M 327.21573,297.30232 C 291.77006,374.75272 282.57619,478.3957 327.86298,582.7392 C 372.74014,479.09781 365.33567,374.8029 327.21573,297.30232 z"
       id="path2409"
       style="fill:#375ea3;fill-opacity:1;fill-rule:evenodd;stroke:#000000;stroke-width:3;stroke-linecap:butt;stroke-linejoin:miter;stroke-miterlimit:4;stroke-dasharray:none;stroke-opacity:1" />
    <path
       d="M 379.42188,311.21861 C 406.94759,315.75675 464.44687,369.84963 462.92188,411.87486 C 439.17518,375.69662 399.91749,402.02088 400.14274,441.32136 C 400.36615,480.29873 438.5847,503.08623 462.57812,469.78111 C 461.51412,511.1591 406.28022,565.57559 378.7545,570.11374 C 401.51437,512.86617 390.6389,510.85126 365.47537,496.96649 C 372.07603,466.33826 371.42778,417.31368 365.17188,383.71861 C 391.78424,368.63306 402.50537,362.31731 379.42188,311.21861 z"
       id="path2411"
       style="fill:#375ea3;fill-opacity:1;fill-rule:evenodd;stroke:#000000;stroke-width:3;stroke-linecap:butt;stroke-linejoin:miter;stroke-miterlimit:4;stroke-dasharray:none;stroke-opacity:1" />
  </g>
</svg>
