<?xml version="1.0" encoding="UTF-8" standalone="no"?>
<!-- Created with Inkscape (http://www.inkscape.org/) -->
<svg
   xmlns:svg="http://www.w3.org/2000/svg"
   xmlns="http://www.w3.org/2000/svg"
   version="1.0"
   width="290"
   height="315"
   id="svg3231">
  <defs
     id="defs3233" />
  <g
     transform="translate(-200.69815,-212.28629)"
     id="layer1">
    <path
       d="M 287.40127,215.05192 C 191.01375,255.44601 181.32265,376.62842 245.52627,442.14567 L 262.77627,463.83317 L 286.90127,502.23942 L 287.40127,419.48942 C 234.63467,382.65001 248.27352,303.03674 277.55752,277.61442 C 324.05574,292.96846 369.79225,292.9009 413.83877,277.61442 C 443.12277,303.03674 456.76162,382.64999 403.99502,419.48942 L 404.49502,502.23942 L 428.62002,463.83317 L 445.87002,442.14567 C 510.07364,376.62842 500.38254,255.44599 403.99502,215.05192 C 393.32098,252.27968 297.44169,252.69192 287.40127,215.05192 z"
       id="path3254"
       style="fill:#272727;fill-opacity:1;fill-rule:evenodd;stroke:#000000;stroke-width:3;stroke-linecap:butt;stroke-linejoin:miter;stroke-miterlimit:4;stroke-dasharray:none;stroke-opacity:1" />
    <path
       d="M 273.27627,291.20817 C 265.22176,304.82529 262.38503,315.9883 262.74502,325.64567 C 271.85248,333.1804 280.91585,340.54843 293.77627,348.08317 L 293.24502,363.58317 C 283.67717,361.73719 281.77784,360.69698 267.93252,355.20817 C 269.7056,367.49808 280.78182,380.6977 293.90127,393.77067 C 302.77503,445.78681 309.73272,506.5109 335.27627,524.52067 L 336.83877,383.05192 L 353.83877,383.05192 L 355.43252,524.52067 C 380.97607,506.5109 387.90252,445.78681 396.77627,393.77067 C 409.89572,380.6977 421.00319,367.49808 422.77627,355.20817 C 408.93095,360.69698 407.03161,361.73718 397.46377,363.58317 L 396.90127,348.08317 C 409.76169,340.54843 418.82505,333.18041 427.93252,325.64567 C 428.29251,315.9883 425.45577,304.82529 417.40127,291.20817 C 405.0768,295.06412 391.20216,300.51373 366.27627,301.45817 C 360.30774,319.24995 353.28261,332.49894 345.33877,341.89567 C 337.40009,332.49982 330.36665,319.24057 324.40127,301.45817 C 299.47538,300.51373 285.60074,295.06412 273.27627,291.20817 z"
       id="path3256"
       style="fill:#272727;fill-opacity:1;fill-rule:evenodd;stroke:#000000;stroke-width:3;stroke-linecap:butt;stroke-linejoin:miter;stroke-miterlimit:4;stroke-dasharray:none;stroke-opacity:1" />
  </g>
</svg>
