<?xml version="1.0" encoding="UTF-8" standalone="no"?>
<!-- Created with Inkscape (http://www.inkscape.org/) -->
<svg
   xmlns:svg="http://www.w3.org/2000/svg"
   xmlns="http://www.w3.org/2000/svg"
   version="1.0"
   width="300"
   height="300"
   id="svg2">
  <defs
     id="defs4" />
  <g
     transform="translate(-236.37341,-372.43567)"
     id="layer1">
    <path
       d="M 375.84834,390.30316 C 326.88511,397.02596 284.4565,418.35556 258.29183,476.03986 L 301.22332,483.86854 C 318.28501,457.81512 339.03786,437.5621 370.16623,433.61345 L 375.84834,390.30316 z"
       id="path2396"
       style="fill:#d6d7d7;fill-opacity:1;fill-rule:evenodd;stroke:#000000;stroke-width:3;stroke-linecap:butt;stroke-linejoin:miter;stroke-miterlimit:4;stroke-dasharray:none;stroke-opacity:1" />
    <path
       d="M 386.32867,378.05506 C 382.54981,422.47021 376.43692,460.66128 364.61039,483.616 L 407.79441,483.616 C 394.10516,460.09688 390.99145,417.69288 386.32867,378.05506 z"
       id="path2398"
       style="fill:#d6d7d7;fill-opacity:1;fill-rule:evenodd;stroke:#000000;stroke-width:3;stroke-linecap:butt;stroke-linejoin:miter;stroke-miterlimit:4;stroke-dasharray:none;stroke-opacity:1" />
    <path
       d="M 244.38223,481.75754 C 285.45582,499.07649 319.8887,516.69188 338.06533,535.03298 L 351.40993,493.96254 C 324.81171,499.71397 283.52092,489.57173 244.38223,481.75754 z"
       id="path2400"
       style="fill:#d6d7d7;fill-opacity:1;fill-rule:evenodd;stroke:#000000;stroke-width:3;stroke-linecap:butt;stroke-linejoin:miter;stroke-miterlimit:4;stroke-dasharray:none;stroke-opacity:1" />
    <path
       d="M 251.56538,496.0736 C 242.82869,544.71786 250.00317,591.66107 296.77888,634.37058 L 317.49096,595.95951 C 297.98503,571.68192 285.13625,545.68626 291.00006,514.86122 L 251.56538,496.0736 z"
       id="path2402"
       style="fill:#d6d7d7;fill-opacity:1;fill-rule:evenodd;stroke:#000000;stroke-width:3;stroke-linecap:butt;stroke-linejoin:miter;stroke-miterlimit:4;stroke-dasharray:none;stroke-opacity:1" />
    <path
       d="M 297.99098,649.77034 C 327.15472,616.05888 354.5483,588.75472 377.60861,577.13543 L 342.67201,551.7525 C 339.92264,578.8262 317.51724,614.96195 297.99098,649.77034 z"
       id="path2404"
       style="fill:#d6d7d7;fill-opacity:1;fill-rule:evenodd;stroke:#000000;stroke-width:3;stroke-linecap:butt;stroke-linejoin:miter;stroke-miterlimit:4;stroke-dasharray:none;stroke-opacity:1" />
    <path
       d="M 313.14823,646.36895 C 356.71188,669.70995 403.57456,677.39285 458.64821,646.10448 L 428.51749,614.53645 C 399.40047,625.5855 370.70664,629.77232 343.2023,614.67004 L 313.14823,646.36895 z"
       id="path2406"
       style="fill:#d6d7d7;fill-opacity:1;fill-rule:evenodd;stroke:#000000;stroke-width:3;stroke-linecap:butt;stroke-linejoin:miter;stroke-miterlimit:4;stroke-dasharray:none;stroke-opacity:1" />
    <path
       d="M 474.9064,649.23621 C 451.85698,611.08243 434.35427,576.59214 430.42969,551.06992 L 395.49309,576.45285 C 420.39211,587.43389 447.8356,619.90925 474.9064,649.23621 z"
       id="path2408"
       style="fill:#d6d7d7;fill-opacity:1;fill-rule:evenodd;stroke:#000000;stroke-width:3;stroke-linecap:butt;stroke-linejoin:miter;stroke-miterlimit:4;stroke-dasharray:none;stroke-opacity:1" />
    <path
       d="M 476.0853,632.59874 C 511.74582,598.38001 533.53404,556.1851 520.79574,494.13831 L 481.46185,513.03927 C 482.97246,544.14555 478.08749,572.7288 455.22506,594.22012 L 476.0853,632.59874 z"
       id="path2410"
       style="fill:#d6d7d7;fill-opacity:1;fill-rule:evenodd;stroke:#000000;stroke-width:3;stroke-linecap:butt;stroke-linejoin:miter;stroke-miterlimit:4;stroke-dasharray:none;stroke-opacity:1" />
    <path
       d="M 514.78927,475.66708 C 493.26504,431.17774 459.86823,397.41696 396.92187,390.3583 L 402.74292,433.60777 C 432.79355,441.78345 458.4683,455.26206 471.84288,483.6467 L 514.78927,475.66708 z"
       id="path2412"
       style="fill:#d6d7d7;fill-opacity:1;fill-rule:evenodd;stroke:#000000;stroke-width:3;stroke-linecap:butt;stroke-linejoin:miter;stroke-miterlimit:4;stroke-dasharray:none;stroke-opacity:1" />
    <path
       d="M 528.3646,480.46568 C 484.95554,490.59681 446.74469,496.58479 421.25885,492.43049 L 434.60345,533.50093 C 452.74126,513.21388 492.10767,497.14901 528.3646,480.46568 z"
       id="path2414"
       style="fill:#d6d7d7;fill-opacity:1;fill-rule:evenodd;stroke:#000000;stroke-width:3;stroke-linecap:butt;stroke-linejoin:miter;stroke-miterlimit:4;stroke-dasharray:none;stroke-opacity:1" />
    <path
       d="M 365.34276,493.38923 C 378.99132,506.05246 392.63987,507.14638 406.28843,493.88921 C 413.82366,500.73423 423.75798,504.06274 426.84891,527.57375 C 411.10301,531.04727 400.14946,544.23212 404.99016,562.62792 C 404.88754,561.52902 387.76481,576.88819 366.6307,561.06945 C 372.68625,532.90417 357.37785,533.23263 346.17511,526.80002 C 348.33546,516.85181 346.80488,507.89732 365.62055,493.46499"
       id="path2420"
       style="fill:#d6d7d7;fill-opacity:1;fill-rule:evenodd;stroke:#000000;stroke-width:3;stroke-linecap:butt;stroke-linejoin:miter;stroke-miterlimit:4;stroke-dasharray:none;stroke-opacity:1" />
  </g>
</svg>
