<?xml version="1.0" encoding="UTF-8" standalone="no"?>
<!-- Created with Inkscape (http://www.inkscape.org/) -->
<svg
   xmlns:svg="http://www.w3.org/2000/svg"
   xmlns="http://www.w3.org/2000/svg"
   version="1.0"
   width="300"
   height="300"
   id="svg3831">
  <defs
     id="defs3833" />
  <g
     transform="translate(-165.46659,-239.66395)"
     id="layer1">
    <path
       d="M 229.78748,276.89714 C 177.91127,317.11878 168.66826,378.0411 176.75176,417.56678 C 194.49335,417.25529 223.98361,429.39803 270.59105,340.29 C 252.18373,325.22995 239.15473,303.37623 229.78748,276.89714 z"
       id="path4365"
       style="fill:#ee312d;fill-opacity:1;fill-rule:evenodd;stroke:#000000;stroke-width:3;stroke-linecap:butt;stroke-linejoin:miter;stroke-miterlimit:4;stroke-dasharray:none;stroke-opacity:1" />
    <path
       d="M 401.1457,276.8976 C 453.02191,317.11924 462.26492,378.04156 454.18142,417.56725 C 436.43983,417.25576 406.94957,429.39849 360.34213,340.29046 C 378.74945,325.23041 391.77845,303.37669 401.1457,276.8976 z"
       id="path4367"
       style="fill:#ee312d;fill-opacity:1;fill-rule:evenodd;stroke:#000000;stroke-width:3;stroke-linecap:butt;stroke-linejoin:miter;stroke-miterlimit:4;stroke-dasharray:none;stroke-opacity:1" />
    <path
       d="M 182.48384,438.34067 C 196.6109,442.31953 281.79205,443.78927 315.09793,247.89535 C 354.58398,445.00149 431.54067,441.9359 448.84844,437.80403 L 448.84844,437.80403 L 448.84844,437.80403 C 426.47033,495.75334 374.42625,530.71263 315.50831,531.43255 C 245.19402,528.31515 201.27051,486.65843 182.48384,438.34067 z M 315.69771,384.83416 C 303.45526,411.57968 282.47666,441.62948 261.65455,458.79627 C 286.06319,482.93919 336.51204,485.52949 369.77244,459.17507 C 346.50807,438.11124 328.33072,411.98624 315.69771,384.83416 z"
       id="path4369"
       style="fill:#ee312d;fill-opacity:1;fill-rule:evenodd;stroke:#000000;stroke-width:3;stroke-linecap:butt;stroke-linejoin:miter;stroke-miterlimit:4;stroke-dasharray:none;stroke-opacity:1" />
  </g>
</svg>
