<?xml version="1.0" encoding="UTF-8" standalone="no"?>
<!-- Created with Inkscape (http://www.inkscape.org/) -->
<svg
   xmlns:svg="http://www.w3.org/2000/svg"
   xmlns="http://www.w3.org/2000/svg"
   version="1.0"
   width="300"
   height="300"
   id="svg2396">
  <defs
     id="defs2398" />
  <g
     transform="translate(-206.91059,-245.1769)"
     id="layer1">
    <path
       d="M 334.03559,257.01465 L 334.03559,286.32715 C 306.73205,286.27987 303.70266,276.70738 297.31684,268.7334 C 259.10275,286.38696 250.50277,302.85596 237.16059,319.51465 L 334.03559,319.51465 L 334.03559,352.32715 C 301.26174,357.02728 280.38056,336.84606 276.62934,328.88965 L 233.66059,328.88965 C 213.4547,373.87634 213.46136,415.88653 233.66059,460.8584 L 276.59809,460.8584 C 284.83957,449.41286 295.10926,438.63816 334.03559,437.4209 L 334.03559,470.2334 L 237.16059,470.2334 C 250.50277,486.8921 259.10275,503.36109 297.31684,521.01465 C 303.70266,513.04068 306.73205,503.46817 334.03559,503.4209 L 334.03559,532.7334 C 350.24002,536.5199 365.85756,535.61125 381.28559,533.18652 L 381.16059,503.45215 C 407.16669,503.82113 410.22968,513.17949 416.50434,521.01465 C 454.71843,503.36109 463.31841,486.89211 476.66059,470.2334 L 381.03559,470.2334 L 380.87934,437.4834 C 418.88949,438.8699 429.06072,449.52274 437.22309,460.8584 L 480.16059,460.8584 C 500.35983,415.88653 500.36648,373.87635 480.16059,328.88965 L 437.19184,328.88965 C 433.46963,336.78453 412.87317,356.70504 380.53559,352.4209 L 380.37934,319.51465 L 476.66059,319.51465 C 463.31841,302.85596 454.71843,286.38697 416.50434,268.7334 C 410.1564,276.66007 407.11055,286.1682 380.25434,286.32715 L 380.12934,257.01465 C 364.63647,254.44891 349.26806,254.37229 334.03559,257.01465 z"
       id="path2433"
       style="fill:#522216;fill-opacity:1;fill-rule:evenodd;stroke:#000000;stroke-width:3;stroke-linecap:butt;stroke-linejoin:miter;stroke-miterlimit:4;stroke-dasharray:none;stroke-opacity:1" />
  </g>
</svg>
