<?xml version="1.0" encoding="UTF-8" standalone="no"?>
<!-- Created with Inkscape (http://www.inkscape.org/) -->
<svg
   xmlns:svg="http://www.w3.org/2000/svg"
   xmlns="http://www.w3.org/2000/svg"
   version="1.0"
   width="300"
   height="300"
   id="svg3260">
  <defs
     id="defs3262" />
  <g
     transform="translate(-158.46139,-275.26814)"
     id="layer1">
    <path
       d="M 406.14581,534.45483 C 376.3244,560.83596 339.36103,571.96411 308.2561,571.52905 C 273.5212,571.04321 233.22169,556.83255 211.18636,534.45483 C 219.61776,528.48482 222.64426,519.81237 225.83358,511.22132 C 252.00683,534.73145 259.35845,535.682 293.5138,544.05128 L 293.5138,492.02843 L 219.26759,492.02843 C 209.85816,516.66362 206.20089,515.57176 201.08484,524.35331 C 175.13174,496.82607 157.45924,454.79383 162.69904,410.71115 C 180.43813,441.86198 194.77354,463.55815 200.44509,461.18803 C 208.3811,449.57251 213.1192,399.50676 190.98332,339.49539 C 256.52636,259.53235 358.75712,258.12428 425.93946,339.50369 C 403.80358,399.51506 408.54168,449.58081 416.47769,461.19633 C 422.14924,463.56645 436.48465,441.87028 454.22374,410.71945 C 459.46354,454.80213 441.79104,496.83437 415.83794,524.36161 C 410.72189,515.58006 407.06462,516.67192 397.65519,492.03673 L 323.40898,492.03673 L 323.40898,544.05958 C 357.56433,535.6903 364.91595,534.73975 391.0892,511.22962 C 394.99889,524.23782 400.78785,533.52644 406.14581,534.45483 z M 293.5138,371.82027 C 252.56627,367.67527 240.98618,354.35295 219.77266,344.04108 C 225.29426,358.69685 226.12921,374.52428 226.33865,390.50809 L 293.5138,391.01317 L 293.5138,371.82027 z M 293.5138,422.3279 L 228.86403,422.3279 C 229.68678,448.36483 227.60668,452.63039 225.83358,459.19847 L 293.5138,459.19847 L 293.5138,422.3279 z M 323.40898,371.82857 C 364.35651,367.68357 375.9366,354.36125 397.15012,344.04938 C 391.62852,358.70515 390.79357,374.53258 390.58413,390.51639 L 323.40898,391.02147 L 323.40898,371.82857 z M 323.40898,422.3362 L 388.05875,422.3362 C 387.236,448.37313 389.3161,452.63869 391.0892,459.20677 L 323.40898,459.20677 L 323.40898,422.3362 z M 243.00617,324.84818 C 279.16044,346.01019 318.21174,359.25363 374.326,325.85833 L 375.33615,325.85833 C 323.06616,297.8127 280.50737,301.8039 243.00617,324.84818 z"
       id="path3794"
       style="fill:#60b6b5;fill-opacity:1;fill-rule:evenodd;stroke:#000000;stroke-width:3;stroke-linecap:butt;stroke-linejoin:miter;stroke-miterlimit:4;stroke-dasharray:none;stroke-opacity:1" />
  </g>
</svg>
